<svg fill="none" xmlns="http://www.w3.org/2000/svg" viewBox="300 450 1548 1569">
    <!--   purple   -->
    <path
        d="M.801 666.57c0 367.94 308.999 666.21 690.167 666.21 381.172 0 690.172-298.27 690.172-666.21 0-367.935-309-666.205-690.172-666.205C309.8.365.801 298.635.801 666.57Z"
        fill="#C3F" />
    <!--   red   -->
    <path
        d="M.553 1292.6c0 141.83 114.135 256.81 254.928 256.81s254.928-114.98 254.928-256.81c0-141.84-114.135-256.82-254.928-256.82S.553 1150.76.553 1292.6Z"
        fill="#FF8997" />

    <!--   blue   -->
    <path
        d="M543.484 874.805c0 155.155-.26 210.255 101.247 306.775 89.096 84.72 306.441-271.342 400.939 220.73 94.5 492.06 502.18-236.17 502.18-527.505 0-291.33-224.83-527.5-502.18-527.5s-502.186 236.17-502.186 527.5Z"
        fill="#5CF7FF" />
</svg>